# xmcd CD database file
#
# Track frame offsets:
#	150
#	13355
#	27207
#	43030
#	64442
#	85295
#	100232
#	125257
#	139197
#	156830
#
# Disc length: 2360 seconds
#
# Revision: 0
# Processed by: cddbd v1.5.1PL0 Copyright (c) Steve Scherf et al.
# Submitted via: CDex 1.51
#
DISCID=8809360a
DTITLE=てつ１００％ - あと３ｃｍ
DYEAR=1900
DGENRE=J-Pop
TTITLE0=私の自転車
TTITLE1=マンガ姫
TTITLE2=いとしの森鴎外
TTITLE3=ランドセルの時間
TTITLE4=赤電話のむこうがわ
TTITLE5=恋のダイエット−食べてやせる−
TTITLE6=コレデモカ’８８
TTITLE7=避難訓練
TTITLE8=電車がなくなる日
TTITLE9=あと３ｃｍ
EXTD=
EXTT0=
EXTT1=
EXTT2=
EXTT3=
EXTT4=
EXTT5=
EXTT6=
EXTT7=
EXTT8=
EXTT9=
PLAYORDER=
